<svg id="svg" version="1.1" xmlns="http://www.w3.org/2000/svg" xmlns:xlink="http://www.w3.org/1999/xlink" width="400" height="400" viewBox="0, 0, 400,400"><g id="svgg"><path id="path0" d="M98.935 89.957 C 97.117 92.500,95.750 95.452,95.108 98.221 C 94.594 100.436,94.535 113.125,94.625 201.642 L 94.727 302.539 95.767 305.134 C 96.793 307.690,98.702 310.942,99.173 310.933 C 99.379 310.930,116.836 296.693,134.570 282.067 C 137.363 279.763,147.119 271.746,156.250 264.250 C 165.381 256.755,175.840 248.151,179.492 245.130 C 183.145 242.108,187.246 238.760,188.608 237.689 C 197.527 230.672,234.144 200.496,234.247 200.078 C 234.284 199.928,231.395 197.432,227.826 194.531 C 219.321 187.620,192.768 165.869,191.016 164.377 C 190.264 163.737,187.501 161.522,184.877 159.454 C 182.252 157.386,180.264 155.595,180.458 155.475 C 180.653 155.355,178.059 153.063,174.694 150.382 C 168.798 145.684,163.747 141.480,143.555 124.459 C 138.398 120.112,129.346 112.529,123.438 107.606 C 117.529 102.684,110.193 96.505,107.136 93.877 C 99.978 87.724,100.390 87.921,98.935 89.957 M146.664 161.624 C 149.180 169.198,151.399 175.296,151.596 175.175 C 151.792 175.053,151.953 175.228,151.953 175.563 C 151.953 177.134,157.307 172.692,157.656 170.831 C 158.044 168.763,160.764 168.568,161.664 170.544 C 162.091 171.480,162.133 171.458,167.863 167.266 C 179.217 158.959,181.750 157.512,178.476 161.201 C 174.073 166.164,164.269 175.724,164.010 175.306 C 163.735 174.861,162.382 175.901,157.617 180.224 L 155.664 181.996 172.406 182.014 L 189.148 182.031 186.664 183.856 C 181.760 187.460,164.253 200.926,164.017 201.277 C 163.885 201.474,164.088 202.635,164.468 203.857 C 164.848 205.079,165.471 207.568,165.852 209.387 C 166.543 212.688,166.553 212.705,170.577 217.530 C 174.785 222.575,175.067 223.177,173.900 224.618 C 172.927 225.819,172.301 225.420,168.747 221.338 C 167.152 219.506,165.787 218.067,165.715 218.140 C 165.576 218.278,171.737 238.133,172.102 238.723 C 172.649 239.608,158.150 229.129,145.719 219.654 C 143.563 218.011,141.854 216.968,141.617 217.149 C 141.394 217.320,138.838 219.192,135.938 221.308 C 133.037 223.424,126.471 228.295,121.345 232.132 C 116.220 235.970,111.976 239.055,111.914 238.989 C 111.800 238.866,114.169 231.028,117.394 220.857 C 119.433 214.425,119.385 214.755,118.262 214.914 C 117.558 215.014,117.383 215.290,117.383 216.299 C 117.383 217.688,112.176 223.438,110.918 223.438 C 109.863 223.438,105.863 217.963,105.860 216.515 C 105.860 216.253,108.892 213.408,112.598 210.193 C 119.178 204.484,121.169 202.099,120.363 200.892 C 120.100 200.499,105.178 189.277,99.512 185.212 C 95.165 182.093,95.052 182.226,102.053 182.231 C 109.559 182.238,108.660 182.668,113.066 176.953 C 118.164 170.338,119.069 169.753,121.907 171.234 C 122.894 171.749,122.925 171.726,123.351 170.132 C 124.219 166.888,126.899 167.049,130.253 170.549 C 131.634 171.991,132.031 172.695,132.031 173.703 C 132.031 177.772,133.358 174.211,140.381 151.290 C 141.052 149.100,141.711 147.430,141.846 147.580 C 141.980 147.729,144.148 154.049,146.664 161.624 M125.605 178.027 C 125.461 178.618,124.912 179.761,124.385 180.566 L 123.426 182.031 128.724 182.031 L 134.021 182.031 132.756 180.456 C 131.730 179.180,131.427 178.995,131.155 179.480 C 130.670 180.348,130.364 180.249,128.172 178.516 C 125.821 176.658,125.933 176.679,125.605 178.027 " stroke="none" fill="#cb1333" fill-rule="evenodd"></path><path id="path1" d="M111.975 81.454 C 107.073 82.691,99.326 87.767,100.905 88.708 C 101.295 88.940,104.108 91.274,107.155 93.894 C 110.202 96.514,118.584 103.567,125.781 109.568 C 132.979 115.569,141.783 122.946,145.346 125.962 C 159.709 138.117,168.277 145.248,174.506 150.230 L 181.055 155.467 216.588 155.468 L 252.121 155.469 216.393 134.637 C 196.742 123.180,168.799 106.888,154.297 98.431 C 139.795 89.975,126.787 82.626,125.391 82.099 C 122.163 80.882,115.509 80.562,111.975 81.454 M175.977 161.453 C 174.043 162.793,170.128 165.598,167.277 167.687 C 162.120 171.465,162.091 171.480,161.664 170.543 C 160.764 168.568,158.043 168.763,157.656 170.831 C 157.303 172.712,152.185 176.950,151.884 175.610 C 151.802 175.244,149.871 176.606,146.346 179.516 C 139.896 184.843,140.996 184.719,137.260 180.536 C 132.097 174.755,132.031 174.666,132.031 173.511 C 132.031 172.731,131.507 171.859,130.253 170.549 C 126.899 167.049,124.219 166.888,123.351 170.132 C 122.925 171.726,122.894 171.749,121.907 171.234 C 120.837 170.676,119.219 170.548,118.196 170.940 C 117.856 171.071,115.788 173.488,113.601 176.311 C 111.414 179.135,108.756 182.460,107.696 183.700 L 105.768 185.954 107.474 187.442 C 108.412 188.261,110.357 189.924,111.797 191.139 L 114.414 193.346 119.711 186.615 C 122.713 182.799,125.202 179.248,125.456 178.418 C 126.002 176.636,125.783 176.628,128.172 178.516 C 130.346 180.235,130.671 180.345,131.135 179.517 C 131.416 179.014,137.891 185.731,137.891 186.525 C 137.891 187.251,135.594 188.649,134.375 188.665 C 132.566 188.689,128.384 189.690,126.911 190.451 C 125.348 191.260,123.977 193.509,121.443 199.426 L 119.336 204.344 112.598 210.191 C 108.892 213.407,105.860 216.253,105.860 216.515 C 105.863 217.963,109.863 223.438,110.918 223.438 C 112.176 223.438,117.383 217.688,117.383 216.299 L 117.383 215.039 126.732 214.699 C 135.893 214.367,136.133 214.378,138.592 215.246 C 141.793 216.376,142.780 216.330,146.241 214.889 L 149.069 213.712 154.124 214.088 C 163.328 214.774,162.868 214.572,167.564 219.980 C 172.311 225.447,172.887 225.869,173.900 224.618 C 175.067 223.177,174.785 222.575,170.577 217.530 L 166.545 212.695 165.866 209.375 C 165.187 206.052,162.089 196.361,160.592 192.875 C 159.344 189.970,155.233 188.242,149.728 188.309 C 145.624 188.358,145.681 188.925,149.814 189.168 C 153.548 189.387,157.589 190.410,158.847 191.454 C 159.141 191.698,160.769 196.137,162.465 201.320 C 164.162 206.502,165.680 211.094,165.840 211.523 C 166.097 212.217,163.810 209.860,162.636 208.222 C 162.252 207.686,161.055 202.684,159.288 194.236 C 159.052 193.107,158.791 192.251,158.708 192.334 C 158.473 192.568,160.088 201.793,160.781 204.178 C 161.122 205.349,161.340 206.358,161.267 206.419 C 161.125 206.536,146.256 190.296,145.388 189.076 C 144.928 188.429,145.252 188.029,148.673 185.015 C 152.430 181.705,153.125 181.365,153.125 182.836 C 153.125 184.114,153.971 183.483,163.012 175.463 C 163.560 174.977,163.788 174.946,164.022 175.324 C 164.227 175.657,166.705 173.381,171.792 168.188 C 181.454 158.324,182.179 157.157,175.977 161.453 M190.653 163.965 C 190.678 164.215,207.092 177.711,228.541 195.117 C 231.718 197.695,234.286 199.926,234.248 200.074 C 234.176 200.358,209.819 220.542,195.214 232.422 L 190.651 236.133 228.981 236.232 L 267.311 236.332 282.191 227.667 C 306.056 213.771,308.203 211.519,308.203 200.391 C 308.203 189.059,305.289 186.101,279.782 171.536 L 266.010 163.672 228.317 163.672 C 207.587 163.672,190.638 163.804,190.653 163.965 M134.733 189.206 C 132.367 191.287,126.512 196.094,126.342 196.094 C 126.133 196.094,126.294 194.936,126.806 192.773 C 126.949 192.168,126.909 192.124,126.631 192.578 C 126.434 192.900,126.056 194.043,125.792 195.117 C 125.377 196.803,122.581 200.261,122.682 198.964 C 122.786 197.630,126.154 191.932,127.200 191.321 C 128.570 190.522,135.426 188.596,134.733 189.206 M136.706 191.895 C 136.694 193.349,135.463 195.785,134.999 195.270 C 134.831 195.083,136.331 190.234,136.557 190.234 C 136.646 190.234,136.713 190.981,136.706 191.895 M152.883 202.730 C 160.333 210.950,161.160 211.989,159.311 210.807 C 155.366 208.283,146.600 208.381,144.788 210.968 C 143.210 213.221,142.578 212.429,142.578 208.201 C 142.578 204.537,142.627 204.297,143.372 204.297 C 143.808 204.297,144.266 204.033,144.390 203.711 C 144.514 203.389,144.942 203.125,145.342 203.125 C 145.828 203.125,145.995 203.319,145.844 203.711 C 145.707 204.070,145.845 204.297,146.202 204.297 C 146.962 204.297,147.243 203.138,146.981 201.076 C 146.703 198.892,146.122 198.117,145.451 199.035 C 145.075 199.550,144.642 199.644,143.575 199.444 L 142.188 199.183 142.112 196.760 L 142.037 194.336 141.899 196.751 L 141.761 199.166 139.866 198.603 C 138.823 198.293,137.332 197.774,136.552 197.448 L 135.134 196.855 138.368 194.378 C 141.012 192.353,141.650 192.016,141.867 192.533 C 142.062 192.997,142.140 192.906,142.160 192.193 C 142.195 190.965,142.431 191.197,152.883 202.730 M132.514 192.928 C 132.340 193.397,131.296 194.521,130.193 195.426 C 129.090 196.330,126.592 198.445,124.641 200.124 C 121.158 203.123,120.113 203.569,122.098 201.210 C 122.650 200.554,124.892 198.542,127.078 196.739 C 129.265 194.936,131.391 193.086,131.801 192.627 C 132.686 191.637,132.950 191.749,132.514 192.928 M138.022 203.124 C 139.444 203.769,140.875 204.297,141.202 204.297 C 141.688 204.297,141.797 204.902,141.797 207.585 C 141.797 209.394,141.904 211.152,142.034 211.491 C 142.509 212.730,140.474 212.221,139.917 210.961 C 139.168 209.270,136.700 208.434,133.195 208.685 C 129.633 208.940,129.126 208.333,131.088 206.162 C 131.822 205.350,132.421 204.466,132.420 204.198 C 132.418 203.393,130.754 200.934,130.572 201.465 C 130.479 201.733,130.111 201.948,129.753 201.943 C 129.301 201.935,129.513 201.591,130.444 200.819 L 131.786 199.706 133.611 200.829 C 134.614 201.446,136.599 202.479,138.022 203.124 M129.660 203.809 C 129.553 204.954,128.959 205.592,128.934 204.590 C 128.919 203.999,129.082 203.516,129.297 203.516 C 129.512 203.516,129.675 203.647,129.660 203.809 M123.833 207.715 C 123.836 207.876,124.348 208.623,124.972 209.375 C 125.595 210.127,126.430 211.149,126.827 211.646 C 127.511 212.505,127.607 212.520,128.706 211.950 C 129.376 211.602,130.010 211.494,130.209 211.694 C 130.913 212.397,132.847 211.341,132.397 210.500 C 132.174 210.084,131.837 209.839,131.648 209.956 C 131.459 210.073,131.178 209.964,131.023 209.714 C 130.659 209.125,137.374 209.462,138.552 210.092 C 139.490 210.594,140.080 211.835,139.475 212.037 C 139.248 212.113,139.063 212.706,139.063 213.356 C 139.063 214.319,138.937 214.489,138.380 214.275 C 135.980 213.354,133.567 213.213,127.335 213.627 C 123.740 213.867,120.210 214.063,119.492 214.063 L 118.185 214.063 120.827 211.400 C 122.720 209.492,123.397 208.552,123.216 208.080 C 123.073 207.707,123.151 207.422,123.396 207.422 C 123.634 207.422,123.830 207.554,123.833 207.715 M157.711 210.793 C 159.537 211.412,161.247 212.297,162.012 213.018 C 163.175 214.116,163.771 215.192,162.925 214.670 C 160.683 213.284,150.611 212.506,147.425 213.472 C 144.884 214.243,144.996 214.294,145.061 212.402 C 145.158 209.529,151.575 208.713,157.711 210.793 M144.068 213.770 C 143.877 215.745,139.844 215.893,139.844 213.925 C 139.844 212.656,140.110 212.500,142.277 212.500 L 144.190 212.500 144.068 213.770 " stroke="none" fill="#0e2d29" fill-rule="evenodd"></path><path id="path2" d="M0.000 200.000 L 0.000 400.000 200.000 400.000 L 400.000 400.000 400.000 200.000 L 400.000 0.000 200.000 0.000 L 0.000 0.000 0.000 200.000 M123.828 81.507 C 127.155 82.410,120.221 78.437,219.069 136.070 L 252.004 155.273 216.139 155.469 L 180.273 155.664 185.312 159.668 L 190.351 163.672 228.275 163.672 L 266.199 163.672 280.658 171.935 C 305.369 186.058,308.203 188.961,308.203 200.154 C 308.203 209.243,304.735 214.554,295.117 220.195 C 292.539 221.707,285.290 225.955,279.007 229.636 L 267.585 236.328 228.994 236.328 L 190.404 236.328 185.644 240.137 L 180.885 243.945 217.298 244.141 C 253.337 244.334,253.697 244.344,252.344 245.078 C 249.354 246.699,221.792 262.848,202.930 274.029 C 165.074 296.469,156.340 301.657,144.727 308.602 C 128.171 318.502,128.072 318.556,124.617 319.508 C 111.397 323.149,97.510 314.958,94.854 301.953 C 93.940 297.476,94.104 101.441,95.025 98.047 C 98.427 85.503,111.305 78.108,123.828 81.507 M131.596 189.836 C 126.755 191.099,126.219 191.530,124.304 195.703 L 122.601 199.414 123.969 198.094 C 124.926 197.170,125.478 196.173,125.805 194.774 C 126.414 192.170,127.084 191.040,126.759 193.164 C 126.628 194.023,126.417 195.077,126.290 195.505 C 126.079 196.217,126.121 196.234,126.799 195.705 C 130.193 193.053,135.186 188.652,134.277 189.112 C 134.224 189.139,133.017 189.465,131.596 189.836 M146.430 190.058 C 147.868 191.886,161.059 206.258,161.184 206.133 C 161.248 206.070,161.051 205.192,160.747 204.183 C 160.024 201.780,158.594 193.923,158.594 192.353 C 158.594 190.738,155.004 189.503,149.321 189.164 L 145.549 188.939 146.430 190.058 M135.686 192.918 L 134.848 195.407 135.811 194.445 C 136.569 193.686,136.747 193.159,136.648 191.956 L 136.523 190.430 135.686 192.918 M142.188 195.264 L 142.188 199.121 143.455 199.375 C 144.395 199.563,144.845 199.461,145.194 198.984 C 145.820 198.128,146.874 198.572,146.879 199.695 C 146.882 200.185,146.976 201.201,147.089 201.953 C 147.340 203.627,147.016 204.151,145.504 204.519 L 144.336 204.803 145.313 203.977 C 146.218 203.211,146.232 203.150,145.504 203.138 C 145.072 203.131,144.490 203.491,144.211 203.939 C 143.923 204.401,143.459 204.660,143.140 204.537 C 142.676 204.359,142.578 204.962,142.578 208.020 C 142.578 211.678,142.589 211.719,143.528 211.719 C 144.119 211.719,144.568 211.438,144.715 210.975 C 145.573 208.270,153.463 208.156,159.570 210.760 C 160.000 210.943,157.891 208.388,154.883 205.083 C 151.875 201.777,147.865 197.347,145.972 195.239 C 141.813 190.607,142.188 190.605,142.188 195.264 M138.867 194.141 C 137.363 195.410,135.878 196.456,135.566 196.466 C 134.487 196.501,135.730 197.160,138.770 198.165 L 141.797 199.165 141.797 195.481 C 141.797 193.455,141.753 191.805,141.699 191.815 C 141.646 191.825,140.371 192.872,138.867 194.141 M131.250 193.223 C 130.713 193.767,128.573 195.599,126.495 197.296 C 123.182 200.000,120.563 202.734,121.285 202.734 C 121.419 202.734,123.411 201.108,125.712 199.121 C 128.012 197.134,130.347 195.153,130.901 194.719 C 131.944 193.901,133.071 192.170,132.533 192.211 C 132.365 192.224,131.787 192.680,131.250 193.223 M159.207 193.416 C 160.580 201.590,162.363 207.847,163.814 209.583 C 165.559 211.670,165.827 211.661,165.064 209.542 C 164.760 208.698,163.422 204.668,162.092 200.586 C 159.580 192.881,158.786 190.907,159.207 193.416 M130.439 201.062 C 129.918 201.647,129.783 201.903,130.138 201.632 C 132.096 200.137,132.999 204.634,131.081 206.332 C 129.000 208.174,129.697 208.830,133.550 208.655 C 137.073 208.495,139.207 209.189,139.906 210.722 C 141.035 213.201,142.003 212.006,141.866 208.302 L 141.740 204.883 139.522 203.933 C 138.303 203.410,136.102 202.312,134.633 201.491 C 131.448 199.714,131.625 199.732,130.439 201.062 M123.191 207.982 C 123.408 208.574,122.891 209.322,120.816 211.420 L 118.164 214.102 123.242 213.789 C 129.712 213.391,135.334 213.390,137.207 213.787 C 138.548 214.072,138.672 214.025,138.672 213.244 C 138.672 212.775,138.942 212.194,139.271 211.953 C 140.872 210.782,137.237 209.368,132.662 209.381 C 130.795 209.386,130.728 209.419,131.641 209.881 C 132.178 210.152,132.617 210.620,132.617 210.921 C 132.617 211.565,130.412 212.259,130.079 211.720 C 129.947 211.507,129.392 211.594,128.749 211.927 C 127.253 212.704,127.267 212.709,126.173 210.940 C 125.412 209.708,125.044 209.432,124.424 209.629 C 123.762 209.839,123.715 209.787,124.123 209.295 C 124.518 208.819,124.452 208.577,123.761 207.969 C 122.928 207.239,122.919 207.239,123.191 207.982 M147.330 210.138 C 145.345 210.460,145.023 210.848,145.234 212.659 L 145.391 214.000 146.963 213.445 C 149.216 212.651,154.720 212.754,159.198 213.676 C 163.632 214.588,163.670 214.579,162.006 213.022 C 159.342 210.528,152.821 209.247,147.330 210.138 M140.160 212.704 C 139.636 213.229,140.391 214.868,141.257 215.086 C 142.995 215.522,144.141 214.957,144.141 213.664 C 144.141 212.559,141.050 211.814,140.160 212.704 " stroke="none" fill="#fbfbf4" fill-rule="evenodd"></path><path id="path3" d="M140.567 150.704 C 139.999 152.573,138.022 158.913,136.174 164.794 L 132.816 175.486 134.053 176.903 C 137.847 181.248,140.401 183.984,140.662 183.984 C 140.824 183.984,143.211 182.109,145.967 179.816 C 148.722 177.524,151.039 175.601,151.115 175.544 C 151.286 175.415,142.185 147.958,141.846 147.579 C 141.711 147.429,141.136 148.835,140.567 150.704 M148.711 185.002 C 146.627 186.845,144.922 188.420,144.922 188.502 C 144.922 188.584,146.548 188.545,148.535 188.416 C 152.283 188.172,155.570 188.723,158.409 190.070 C 159.822 190.741,160.375 191.803,162.522 197.976 C 163.219 199.978,163.894 201.459,164.023 201.267 C 164.255 200.923,181.836 187.403,186.664 183.856 L 189.148 182.031 172.339 182.031 L 155.529 182.031 154.327 183.043 C 153.265 183.936,153.124 183.970,153.119 183.336 C 153.103 181.436,152.473 181.674,148.711 185.002 M96.096 182.493 C 96.095 182.639,97.632 183.863,99.512 185.212 C 105.422 189.452,120.105 200.507,120.383 200.925 C 120.529 201.145,120.956 200.543,121.332 199.588 C 121.709 198.633,122.820 196.270,123.801 194.337 L 125.586 190.822 128.125 189.915 C 129.521 189.416,131.841 188.908,133.280 188.785 C 135.480 188.598,136.064 188.387,136.948 187.465 L 137.999 186.367 136.089 184.221 L 134.180 182.074 128.711 182.054 L 123.242 182.034 119.141 187.351 C 116.885 190.276,114.922 192.855,114.778 193.083 C 114.623 193.330,113.140 192.322,111.122 190.597 C 109.255 189.001,107.263 187.314,106.696 186.848 L 105.664 186.002 106.652 184.895 C 107.195 184.287,107.950 183.415,108.329 182.959 L 109.018 182.128 102.558 182.177 C 99.006 182.204,96.098 182.346,96.096 182.493 M146.340 214.891 C 143.104 216.334,141.084 216.430,138.474 215.266 C 136.579 214.420,136.279 214.403,127.886 214.669 L 119.249 214.943 117.756 219.679 C 114.263 230.762,111.807 238.875,111.913 238.989 C 111.975 239.055,116.220 235.970,121.345 232.132 C 126.471 228.295,133.037 223.424,135.938 221.308 C 138.838 219.192,141.394 217.320,141.617 217.149 C 141.854 216.968,143.563 218.011,145.719 219.654 C 150.648 223.411,171.866 239.063,172.030 239.063 C 172.101 239.063,171.771 237.876,171.298 236.426 C 170.824 234.976,169.318 230.186,167.950 225.781 C 164.520 214.735,164.704 214.907,155.664 214.260 C 153.945 214.137,151.748 213.960,150.781 213.866 C 149.415 213.733,148.426 213.961,146.340 214.891 M177.930 246.417 C 176.426 247.663,167.197 255.251,157.422 263.279 C 147.646 271.307,137.275 279.833,134.375 282.225 C 123.898 290.868,102.884 308.077,100.890 309.648 L 98.851 311.255 101.478 313.733 C 107.720 319.620,116.373 321.779,124.617 319.508 C 128.072 318.556,128.171 318.502,144.727 308.602 C 156.340 301.657,165.074 296.469,202.930 274.029 C 217.516 265.382,234.829 255.214,244.727 249.480 C 249.023 246.991,252.803 244.782,253.125 244.570 C 253.511 244.318,241.252 244.181,217.188 244.170 L 180.664 244.152 177.930 246.417 " stroke="none" fill="#fbd513" fill-rule="evenodd"></path><path id="path4" d="M94.333 200.586 C 94.333 254.297,94.378 276.211,94.434 249.285 C 94.489 222.359,94.489 178.413,94.434 151.629 C 94.378 124.844,94.333 146.875,94.333 200.586 M145.313 189.002 C 145.313 189.184,145.708 189.667,146.191 190.076 C 147.070 190.820,147.070 190.820,146.386 190.007 C 146.009 189.560,145.819 189.077,145.963 188.933 C 146.106 188.789,146.019 188.672,145.768 188.672 C 145.518 188.672,145.313 188.820,145.313 189.002 M138.589 213.281 C 138.494 213.926,138.562 214.453,138.740 214.453 C 138.917 214.453,139.063 213.926,139.063 213.281 C 139.063 212.637,138.995 212.109,138.912 212.109 C 138.828 212.109,138.683 212.637,138.589 213.281 " stroke="none" fill="#949593" fill-rule="evenodd"></path></g></svg>